#N canvas 41 22 1280 712 12;
#X obj 314 671 dac~;
#X obj 228 658 tgl 15 0 empty empty empty 17 7 0 10 -262144 -1 -1 1
1;
#X obj 228 628 loadbang;
#X obj 12 19 r sampleset;
#X obj 10 56 sel 1 2 3 4;
#X obj 478 56 r tiltz;
#X obj 480 167 change;
#X obj 310 639 hip~ 5;
#N canvas 0 22 450 300 (subpatch) 0;
#X array sample-table 100000 float 0;
#X coords 0 1.02 99999 -1.02 200 130 1;
#X restore 934 485 graph;
#X obj 126 571 tabread4~ sample-table;
#X obj 126 536 line~;
#X obj 934 257 loadbang;
#X text 399 634 read from the table;
#X text 390 652 (the input is the index in samples);
#X text 940 638 (one second plus three extra;
#X text 942 657 for 4-point interpolation);
#X text 923 410 message to read a soundfile into the table (automatically
sent when you load this patch by the "loadbang" object.);
#X text 933 616 --- 44103 samples ---;
#X obj 943 390 soundfiler;
#X msg 845 316 read bell.aif sample-table;
#X msg 169 482 0 0;
#X obj 479 83 / 30;
#X obj 479 111 int;
#X obj 480 139 t f f;
#X obj 480 190 f;
#X msg 90 481 96000 \$1;
#X obj 119 444 t f b;
#X obj 120 416 spigot;
#X obj 506 326 f;
#X obj 540 327 + 1;
#X obj 506 352 % 4;
#X obj 475 296 t f b;
#X obj 156 381 == 0;
#X obj 298 568 tabread4~ sample-table;
#X obj 298 533 line~;
#X msg 358 479 0 0;
#X msg 262 478 96000 \$1;
#X obj 291 441 t f b;
#X obj 292 413 spigot;
#X obj 488 567 tabread4~ sample-table;
#X obj 488 532 line~;
#X msg 531 478 0 0;
#X msg 452 477 96000 \$1;
#X obj 481 440 t f b;
#X obj 482 412 spigot;
#X obj 667 563 tabread4~ sample-table;
#X obj 667 528 line~;
#X msg 710 474 0 0;
#X msg 631 473 96000 \$1;
#X obj 660 436 t f b;
#X obj 661 408 spigot;
#X obj 332 384 == 1;
#X obj 522 383 == 2;
#X obj 701 379 == 3;
#X floatatom 741 414 5 0 0 0 - - -;
#X floatatom 545 415 5 0 0 0 - - -;
#X floatatom 355 416 5 0 0 0 - - -;
#X obj 586 19 r tiltx;
#X obj 1846 59 r tilty;
#X obj 481 217 * 250;
#X obj 588 155 change;
#X obj 587 99 int;
#X obj 588 127 t f f;
#X obj 588 178 f;
#X obj 587 71 * 5;
#X obj 589 205 + 1;
#X obj 483 254 * 1;
#X obj 586 46 abs;
#N canvas 0 22 450 300 (subpatch) 0;
#X array sample2 100000 float 0;
#X coords 0 1.02 99999 -1.02 200 130 1 0 0;
#X restore 1186 510 graph;
#X obj 1845 220 change;
#X obj 1491 589 line~;
#X msg 1534 535 0 0;
#X obj 1844 164 int;
#X obj 1845 192 t f f;
#X obj 1845 243 f;
#X obj 1484 497 t f b;
#X obj 1485 469 spigot;
#X obj 1871 379 f;
#X obj 1905 380 + 1;
#X obj 1871 405 % 4;
#X obj 1840 349 t f b;
#X obj 1521 434 == 0;
#X obj 1663 586 line~;
#X msg 1723 532 0 0;
#X obj 1656 494 t f b;
#X obj 1657 466 spigot;
#X obj 1853 585 line~;
#X msg 1896 531 0 0;
#X obj 1846 493 t f b;
#X obj 1847 465 spigot;
#X obj 2032 581 line~;
#X msg 2075 527 0 0;
#X obj 2025 489 t f b;
#X obj 2026 461 spigot;
#X obj 1697 437 == 1;
#X obj 1887 436 == 2;
#X obj 2066 432 == 3;
#X floatatom 2106 467 5 0 0 0 - - -;
#X floatatom 1910 468 5 0 0 0 - - -;
#X floatatom 1720 469 5 0 0 0 - - -;
#X obj 1846 270 * 250;
#X obj 1953 208 change;
#X obj 1952 152 int;
#X obj 1953 180 t f f;
#X obj 1953 231 f;
#X obj 1952 124 * 5;
#X obj 1954 258 + 1;
#X obj 1848 307 * 1;
#X obj 1953 93 abs;
#X obj 1491 624 tabread4~ sample2;
#X obj 1663 621 tabread4~ sample2;
#X obj 1853 620 tabread4~ sample2;
#X obj 2032 615 tabread4~ sample2;
#X obj 1686 666 hip~ 5;
#X obj 1846 103 abs;
#X obj 1844 136 * 5;
#X msg 941 348 read beep1.aiff sample2;
#X msg 1455 534 32000 \$1;
#X msg 1627 531 32000 \$1;
#X msg 1817 530 32000 \$1;
#X msg 1996 526 32000 \$1;
#X connect 1 0 0 0;
#X connect 2 0 1 0;
#X connect 3 0 4 0;
#X connect 5 0 21 0;
#X connect 6 0 24 0;
#X connect 7 0 0 0;
#X connect 7 0 0 1;
#X connect 9 0 7 0;
#X connect 10 0 9 0;
#X connect 11 0 19 0;
#X connect 11 0 116 0;
#X connect 19 0 18 0;
#X connect 20 0 10 0;
#X connect 21 0 22 0;
#X connect 22 0 23 0;
#X connect 23 0 6 0;
#X connect 23 1 24 1;
#X connect 24 0 59 0;
#X connect 25 0 10 0;
#X connect 26 0 25 0;
#X connect 26 1 20 0;
#X connect 27 0 26 0;
#X connect 28 0 29 0;
#X connect 28 0 30 0;
#X connect 29 0 28 1;
#X connect 30 0 32 0;
#X connect 30 0 51 0;
#X connect 30 0 52 0;
#X connect 30 0 53 0;
#X connect 31 0 27 0;
#X connect 31 0 38 0;
#X connect 31 0 44 0;
#X connect 31 0 50 0;
#X connect 31 1 28 0;
#X connect 32 0 27 1;
#X connect 33 0 7 0;
#X connect 34 0 33 0;
#X connect 35 0 34 0;
#X connect 36 0 34 0;
#X connect 37 0 36 0;
#X connect 37 1 35 0;
#X connect 38 0 37 0;
#X connect 39 0 7 0;
#X connect 40 0 39 0;
#X connect 41 0 40 0;
#X connect 42 0 40 0;
#X connect 43 0 42 0;
#X connect 43 1 41 0;
#X connect 44 0 43 0;
#X connect 45 0 7 0;
#X connect 46 0 45 0;
#X connect 47 0 46 0;
#X connect 48 0 46 0;
#X connect 49 0 48 0;
#X connect 49 1 47 0;
#X connect 50 0 49 0;
#X connect 51 0 38 1;
#X connect 51 0 56 0;
#X connect 52 0 44 1;
#X connect 52 0 55 0;
#X connect 53 0 50 1;
#X connect 53 0 54 0;
#X connect 57 0 67 0;
#X connect 57 0 108 0;
#X connect 58 0 114 0;
#X connect 59 0 66 0;
#X connect 60 0 63 0;
#X connect 61 0 62 0;
#X connect 62 0 60 0;
#X connect 62 1 63 1;
#X connect 63 0 65 0;
#X connect 64 0 61 0;
#X connect 65 0 66 1;
#X connect 66 0 31 0;
#X connect 67 0 64 0;
#X connect 69 0 74 0;
#X connect 70 0 109 0;
#X connect 71 0 70 0;
#X connect 72 0 73 0;
#X connect 73 0 69 0;
#X connect 73 1 74 1;
#X connect 74 0 100 0;
#X connect 75 0 117 0;
#X connect 75 1 71 0;
#X connect 76 0 75 0;
#X connect 77 0 78 0;
#X connect 77 0 79 0;
#X connect 78 0 77 1;
#X connect 79 0 81 0;
#X connect 79 0 94 0;
#X connect 79 0 95 0;
#X connect 79 0 96 0;
#X connect 80 0 76 0;
#X connect 80 0 85 0;
#X connect 80 0 89 0;
#X connect 80 0 93 0;
#X connect 80 1 77 0;
#X connect 81 0 76 1;
#X connect 82 0 110 0;
#X connect 83 0 82 0;
#X connect 84 0 118 0;
#X connect 84 1 83 0;
#X connect 85 0 84 0;
#X connect 86 0 111 0;
#X connect 87 0 86 0;
#X connect 88 0 119 0;
#X connect 88 1 87 0;
#X connect 89 0 88 0;
#X connect 90 0 112 0;
#X connect 91 0 90 0;
#X connect 92 0 120 0;
#X connect 92 1 91 0;
#X connect 93 0 92 0;
#X connect 94 0 85 1;
#X connect 94 0 99 0;
#X connect 95 0 89 1;
#X connect 95 0 98 0;
#X connect 96 0 93 1;
#X connect 96 0 97 0;
#X connect 100 0 107 0;
#X connect 101 0 104 0;
#X connect 102 0 103 0;
#X connect 103 0 101 0;
#X connect 103 1 104 1;
#X connect 104 0 106 0;
#X connect 105 0 102 0;
#X connect 106 0 107 1;
#X connect 107 0 80 0;
#X connect 108 0 105 0;
#X connect 109 0 113 0;
#X connect 110 0 113 0;
#X connect 111 0 113 0;
#X connect 112 0 113 0;
#X connect 113 0 0 0;
#X connect 113 0 0 1;
#X connect 114 0 115 0;
#X connect 115 0 72 0;
#X connect 116 0 18 0;
#X connect 117 0 70 0;
#X connect 118 0 82 0;
#X connect 119 0 86 0;
#X connect 120 0 90 0;
